<svg xmlns="http://www.w3.org/2000/svg" width="64px" height="64px" viewBox="0 0 24 24" fill="#ffffff"><path d="M0 0h24v24H0z" style="fill:none"/><path d="M20 12.89a8.29 8.29 0 0 0-1.54-3.74l-.24-.31-5.07-6.31a1.42 1.42 0 0 0-2.31 0L6 8.55l-.54.67A8.16 8.16 0 0 0 4 12.89c0 .35-.06.72-.06 1.09a8.07 8.07 0 1 0 16.14 0c-.01-.37-.08-.74-.08-1.09Zm-9.34 7.56a7.16 7.16 0 0 1-5.16-5.31 6.57 6.57 0 0 1 1.42-5.35l2.86-3.57L12 3.46l2.22 2.76 2.87 3.57a6.51 6.51 0 0 1 1.5 4.21 6.59 6.59 0 0 1-7.92 6.45Z"/></svg>