<?xml version="1.0" encoding="utf-8"?>

<!DOCTYPE svg PUBLIC "-//W3C//DTD SVG 1.1//EN" "http://www.w3.org/Graphics/SVG/1.1/DTD/svg11.dtd">
<!-- Uploaded to: SVG Repo, www.svgrepo.com, Generator: SVG Repo Mixer Tools -->
<svg version="1.1" xmlns="http://www.w3.org/2000/svg" xmlns:xlink="http://www.w3.org/1999/xlink"  width="64px"
	 height="64px" viewBox="0 0 96 96" enable-background="new 0 0 96 96" xml:space="preserve" fill="#ffffff">
<g id="Base" display="none">
</g>
<g id="Dibujo">
	<g>
		<path d="M72,26.001c1.104,0,2-0.896,2-2s-0.896-2-2-2c-7.039,0-12.864,5.227-13.84,12h-2.021c0.989-7.88,7.718-14,15.861-14
			c1.104,0,2-0.896,2-2s-0.896-2-2-2c-10.354,0-18.892,7.907-19.898,18H44v-10c0-1.481-0.412-2.864-1.116-4.056l1.53-1.53
			c0.781-0.781,0.781-2.047,0-2.828c-0.781-0.781-2.047-0.781-2.828,0l-1.53,1.53c-0.635-0.376-1.324-0.664-2.056-0.852v-2.264
			c0-1.104-0.896-2-2-2c-1.105,0-2,0.896-2,2v2.264c-0.731,0.188-1.421,0.476-2.056,0.852l-1.53-1.53
			c-0.781-0.781-2.047-0.781-2.828,0c-0.781,0.781-0.781,2.047,0,2.828l1.53,1.53c-0.543,0.918-0.908,1.951-1.047,3.056H24
			c-0.928,0-1.733,0.638-1.946,1.54c-0.213,0.903,0.223,1.834,1.052,2.249L28,29.237v6.764c0,10.354,7.907,18.892,18,19.898v10.102
			H28.828l2.586-2.586c0.781-0.781,0.781-2.047,0-2.828c-0.781-0.781-2.047-0.781-2.828,0l-5.999,5.999
			c-0.093,0.093-0.177,0.196-0.25,0.307c-0.032,0.047-0.054,0.099-0.081,0.148c-0.035,0.064-0.074,0.127-0.104,0.195
			c-0.026,0.065-0.042,0.133-0.062,0.2c-0.017,0.058-0.039,0.113-0.052,0.173c-0.051,0.259-0.051,0.524,0,0.783
			c0.013,0.06,0.035,0.115,0.052,0.173c0.02,0.067,0.035,0.135,0.062,0.2c0.029,0.068,0.068,0.131,0.104,0.195
			c0.027,0.05,0.049,0.102,0.081,0.148c0.073,0.11,0.157,0.214,0.25,0.307l5.999,5.999c0.391,0.391,0.902,0.586,1.414,0.586
			s1.023-0.195,1.414-0.586c0.781-0.781,0.781-2.047,0-2.828l-2.586-2.586H46v12c0,1.104,0.895,2,2,2c1.104,0,2-0.896,2-2v-12
			h15.172l5.414,5.414c0.391,0.391,0.902,0.586,1.414,0.586c0.512,0,1.023-0.195,1.414-0.586c0.781-0.781,0.781-2.047,0-2.828
			l-4.586-4.586l4.586-4.586c0.781-0.781,0.781-2.047,0-2.828c-0.781-0.781-2.047-0.781-2.828,0l-5.414,5.414H50V55.899
			c10.093-1.007,18-9.545,18-19.898c0-2.206,1.794-4,4-4c1.104,0,2-0.896,2-2s-0.896-2-2-2c-3.72,0-6.845,2.556-7.736,6h-2.062
			C63.131,29.442,67.171,26.001,72,26.001z M51.444,38.001c-0.693,1.189-1.969,2-3.443,2c-1.475,0-2.75-0.811-3.443-2H51.444z
			 M63.876,38.001c-0.988,7.882-7.731,14-15.876,14c-8.822,0-16-7.178-16-16v-12c0-2.206,1.794-4,4-4c2.206,0,4,1.794,4,4v12
			c0,0.007,0.002,0.013,0.002,0.02c0.011,4.402,3.595,7.98,7.999,7.98c3.72,0,6.845-2.556,7.736-6H63.876z"/>
		<circle cx="36" cy="24.001" r="2"/>
	</g>
</g>
</svg>