<svg xmlns="http://www.w3.org/2000/svg" xml:space="preserve" width="64px" height="64px" viewBox="0 0 96 96" fill="#ffffff"><path d="m78.485 31.061-24.001-6c-.028-.007-.058-.005-.086-.011a2.035 2.035 0 0 0-.27-.035c-.05-.004-.099-.008-.149-.008a2.22 2.22 0 0 0-.304.03c-.038.006-.076.008-.112.017a1.93 1.93 0 0 0-.385.127c-.007.004-.014.005-.021.008a2.004 2.004 0 0 0-.357.213l-8.8 6.6v-6.424a5.003 5.003 0 0 0 3-4.576c0-2.757-2.243-5-5-5s-5 2.243-5 5a5.002 5.002 0 0 0 3 4.576v50.424H18a2 2 0 0 0 0 4h48a2 2 0 0 0 0-4H44v-36l8.8 6.6c.108.081.229.125.346.181.074.035.14.088.218.114.207.069.421.105.635.105H54l.019-.002a2.05 2.05 0 0 0 .448-.056l.018-.002 24.001-6a2 2 0 0 0 1.515-1.94v-6a2.002 2.002 0 0 0-1.516-1.941zM52 41.001l-6.667-5 6.667-5v10zm-10-21a1.001 1.001 0 1 1-1 1c0-.552.449-1 1-1zm14 9.561 8 2v8.877l-8 2V29.562zm20 7.877-8 2v-6.877l8 2v2.877z"/></svg>